HIERARCHY
ROOT Hips
{
	OFFSET 0.00000 0.00000 0.00000
	CHANNELS 6 Xposition Yposition Zposition Zrotation Yrotation Xrotation 
	JOINT LHipJoint
	{
		OFFSET 0 0 0
		CHANNELS 3 Zrotation Yrotation Xrotation
		JOINT LeftHip
		{
			OFFSET 1.41496 -1.84582 0.78394
			CHANNELS 3 Zrotation Yrotation Xrotation
			JOINT LeftKnee
			{
				OFFSET 2.58040 -7.08960 0.00000
				CHANNELS 3 Zrotation Yrotation Xrotation
				JOINT LeftAnkle
				{
					OFFSET 2.64719 -7.27309 0.00000
					CHANNELS 3 Zrotation Yrotation Xrotation
					JOINT LeftToe
					{
						OFFSET 0.20718 -0.56921 2.20259
						CHANNELS 3 Zrotation Yrotation Xrotation
						End Site
						{
							OFFSET 0.00000 -0.00000 1.14243
						}
					}
				}
			}
		}
	}
	JOINT RHipJoint
	{
		OFFSET 0 0 0
		CHANNELS 3 Zrotation Yrotation Xrotation
		JOINT RightHip
		{
			OFFSET -1.40551 -1.84582 0.78394
			CHANNELS 3 Zrotation Yrotation Xrotation
			JOINT RightKnee
			{
				OFFSET -2.56572 -7.04926 0.00000
				CHANNELS 3 Zrotation Yrotation Xrotation
				JOINT RightAnkle
				{
					OFFSET -2.57974 -7.08778 0.00000
					CHANNELS 3 Zrotation Yrotation Xrotation
					JOINT RightToe
					{
						OFFSET -0.26704 -0.73369 2.20815
						CHANNELS 3 Zrotation Yrotation Xrotation
						End Site
						{
							OFFSET -0.00000 -0.00000 1.16246
						}
					}
				}
			}
		}
	}
	JOINT lowerback
	{
		OFFSET 0 0 0
		CHANNELS 3 Zrotation Yrotation Xrotation
		JOINT Chest
		{
			OFFSET -0.04690 2.05196 -0.07017
			CHANNELS 3 Zrotation Yrotation Xrotation
			JOINT Chest2
			{
				OFFSET 0.04085 2.05260 0.00800
				CHANNELS 3 Zrotation Yrotation Xrotation
				JOINT lowerneck
				{
					OFFSET 0 0 0
					CHANNELS 3 Zrotation Yrotation Xrotation
					JOINT Neck
					{
						OFFSET -0.03582 1.80995 0.19301
						CHANNELS 3 Zrotation Yrotation Xrotation
						JOINT Head
						{
							OFFSET 0.00952 1.80195 -0.36389
							CHANNELS 3 Zrotation Yrotation Xrotation
							End Site
							{
								OFFSET 0.00392 1.85062 -0.14494
							}
						}
					}
				}
				JOINT LeftCollar
				{
					OFFSET 0 0 0
					CHANNELS 3 Zrotation Yrotation Xrotation
					JOINT LeftShoulder
					{
						OFFSET 3.55224 1.39726 -0.13667
CHANNELS 3 Zrotation Xrotation Yrotation
						JOINT LeftElbow
						{
OFFSET 0 -5.145070 -0.000000
CHANNELS 3 Zrotation Xrotation Yrotation
							JOINT LeftWrist
							{
OFFSET 0 -3.506460 0.000000
CHANNELS 3 Zrotation Xrotation Yrotation
								JOINT lhand
								{
									OFFSET 0 0 0
CHANNELS 3 Zrotation Xrotation Yrotation
									JOINT LFingers
									{
OFFSET 0 -0.629970 0.000000
CHANNELS 3 Zrotation Xrotation Yrotation
										End Site
										{
OFFSET 0 -0.507900 0.000000
										}
									}
								}
								JOINT LThumb
								{
OFFSET 0 0.000000 0.000000
CHANNELS 3 Zrotation Xrotation Yrotation
									End Site
									{
OFFSET 0 -0.515650 0.515650
									}
								}
							}
						}
					}
				}
				JOINT RightCollar
				{
					OFFSET 0 0 0
					CHANNELS 3 Zrotation Yrotation Xrotation
					JOINT RightShoulder
					{
						OFFSET -3.06467 1.61290 -0.28813
CHANNELS 3 Zrotation Xrotation Yrotation
						JOINT RightElbow
						{
OFFSET 0 -5.232000 -0.000000
CHANNELS 3 Zrotation Xrotation Yrotation
							JOINT RightWrist
							{
OFFSET 0 -3.656410 0.000000
CHANNELS 3 Zrotation Xrotation Yrotation
								JOINT rhand
								{
									OFFSET 0 0 0
CHANNELS 3 Zrotation Xrotation Yrotation
									JOINT RFingers
									{
OFFSET 0 -0.656810 0.000000
CHANNELS 3 Zrotation Xrotation Yrotation
										End Site
										{
OFFSET 0 -0.529530 0.000000
										}
									}
								}
								JOINT RThumb
								{
OFFSET 0 0.000000 0.000000
CHANNELS 3 Zrotation Xrotation Yrotation
									End Site
									{
OFFSET 0 -0.537620 0.537620
									}
								}
							}
						}
					}
				}
			}
		}
	}
}
MOTION
Frames: 10
Frame Time: 0.008333333333333333
-2.855800 16.534500 48.556400 -176.115000 3.321300 -158.803000 0.000000 0.000000 0.000000 -9.864000 -6.448200 -36.393100 14.012800 19.117900 72.243700 0.470100 -6.106400 -12.297800 0.065800 -1.654500 -4.551800 0.000000 0.000000 0.000000 25.206600 8.170900 -27.505000 -4.045800 -12.221100 36.518600 -2.546800 1.128100 -29.919200 -0.078900 1.811800 -4.985900 2.934800 -0.257400 12.391100 3.587500 0.562200 0.022100 2.026500 0.333800 -6.960800 -0.656800 -0.043800 -15.411600 -3.075100 0.543900 9.994300 -0.813800 0.023900 5.540900 -0.000000 0.000000 0.000000 1.532000 4.420800 -47.741100 56.130300 -55.187300 31.141900 21.286200 -6.114300 5.328900 0.000000 0.000000 0.000000 -7.125000 0.000000 0.000000 -4.024100 24.264500 -2.019700 -0.000000 0.000000 0.000000 -3.791400 9.578100 29.491100 -29.249900 -40.241700 -10.921800 -17.325300 4.400100 5.484600 0.000000 0.000000 0.000000 7.125000 0.000000 -0.000000 7.822400 35.632400 1.814500
-2.846184 16.522570 48.491204 -176.202780 3.208583 -158.844097 0.000000 0.000000 0.000000 -9.833197 -6.676507 -36.803789 14.188160 19.168812 72.777360 0.450749 -6.263206 -12.075718 0.043855 -1.262524 -3.472629 0.000000 0.000000 0.000000 25.210191 8.091978 -27.250838 -4.064393 -12.245519 36.606180 -2.585024 0.959882 -30.194349 -0.079897 1.822972 -5.016743 2.973503 -0.281978 12.407539 3.570822 0.534589 0.098987 1.990869 0.320713 -6.887225 -0.640202 -0.058084 -15.450303 -3.102112 0.522593 9.877393 -0.826648 0.013566 5.510257 0.000000 0.000000 0.000000 1.507222 4.428580 -47.780122 56.477748 -55.294670 31.427663 21.328414 -6.264682 5.393019 0.000000 0.000000 0.000000 -7.125000 0.000000 0.000000 -3.992300 24.194276 -2.010084 0.000000 0.000000 0.000000 -3.828627 9.522240 29.646590 -29.376901 -40.352901 -11.004073 -17.354586 4.372090 5.448132 0.000000 0.000000 0.000000 7.125000 0.000000 0.000000 7.793592 35.596091 1.814620
-2.836568 16.510640 48.426007 -176.290559 3.095866 -158.885194 0.000000 0.000000 0.000000 -9.802395 -6.904814 -37.214478 14.363520 19.219724 73.311021 0.431397 -6.420013 -11.853635 0.021910 -0.870548 -2.393458 0.000000 0.000000 0.000000 25.213782 8.013056 -26.996676 -4.082987 -12.269937 36.693760 -2.623248 0.791665 -30.469498 -0.080895 1.834144 -5.047585 3.012206 -0.306557 12.423977 3.554144 0.506979 0.175874 1.955239 0.307626 -6.813649 -0.623603 -0.072368 -15.489006 -3.129124 0.501287 9.760487 -0.839495 0.003232 5.479614 0.000000 0.000000 0.000000 1.482444 4.436361 -47.819144 56.825195 -55.402041 31.713425 21.370628 -6.415065 5.457138 0.000000 0.000000 0.000000 -7.125000 0.000000 0.000000 -3.960500 24.124053 -2.000468 0.000000 0.000000 0.000000 -3.865853 9.466380 29.802079 -29.503902 -40.464102 -11.086347 -17.383873 4.344081 5.411663 0.000000 0.000000 0.000000 7.125000 0.000000 0.000000 7.764785 35.559782 1.814739
-2.826834 16.497429 48.362170 -176.358639 3.028320 -158.892013 0.000000 0.000000 0.000000 -9.764106 -7.090511 -37.688146 14.533068 19.267071 73.825553 0.423787 -6.602133 -11.786391 0.013144 -0.731159 -2.009522 0.000000 0.000000 0.000000 25.220367 7.978202 -26.784868 -4.105027 -12.298749 36.797277 -2.659817 0.617143 -30.735980 -0.085438 1.882883 -5.182185 3.024216 -0.308185 12.461908 3.551176 0.509114 0.217991 1.944509 0.309530 -6.790012 -0.624932 -0.090001 -15.510412 -3.158363 0.480138 9.657370 -0.850097 -0.007693 5.450488 0.000000 0.000000 0.000000 1.437573 4.487342 -47.863406 57.159740 -55.503698 31.988964 21.439555 -6.553884 5.537194 0.000000 0.000000 0.000000 -7.125000 0.000000 0.000000 -3.908902 24.035548 -1.982165 0.000000 0.000000 0.000000 -3.926364 9.433451 29.974924 -29.619360 -40.564724 -11.161312 -17.447259 4.284276 5.377283 0.000000 0.000000 0.000000 7.125000 0.000000 0.000000 7.708063 35.527256 1.807413
-2.816979 16.482906 48.299727 -176.406519 3.007093 -158.863684 0.000000 0.000000 0.000000 -9.718142 -7.232514 -38.226395 14.696657 19.310761 74.320470 0.428216 -6.810211 -11.877921 0.017892 -0.850779 -2.338496 0.000000 0.000000 0.000000 25.230023 7.988536 -26.616491 -4.130603 -12.332065 36.917136 -2.694690 0.436157 -30.993573 -0.093618 1.970144 -5.423180 3.008854 -0.286280 12.521878 3.562269 0.541752 0.224455 1.959311 0.326807 -6.817583 -0.644642 -0.111068 -15.514083 -3.189883 0.459151 9.568393 -0.858397 -0.019224 5.422917 0.000000 0.000000 0.000000 1.372097 4.582623 -47.913042 57.481053 -55.599498 32.254018 21.535873 -6.680845 5.633592 0.000000 0.000000 0.000000 -7.125000 0.000000 0.000000 -3.837002 23.928297 -1.954953 0.000000 0.000000 0.000000 -4.010753 9.424035 30.165566 -29.722979 -40.654498 -11.228782 -17.545612 4.191868 5.345044 0.000000 0.000000 0.000000 7.125000 0.000000 0.000000 7.622717 35.498608 1.792450
-2.807124 16.468382 48.237284 -176.454399 2.985866 -158.835356 0.000000 0.000000 0.000000 -9.672177 -7.374518 -38.764644 14.860247 19.354452 74.815388 0.432644 -7.018288 -11.969451 0.022640 -0.970398 -2.667471 0.000000 0.000000 0.000000 25.239679 7.998870 -26.448114 -4.156179 -12.365382 37.036995 -2.729562 0.255172 -31.251167 -0.101797 2.057405 -5.664175 2.993493 -0.264375 12.581847 3.573361 0.574390 0.230919 1.974114 0.344083 -6.845154 -0.664353 -0.132136 -15.517754 -3.221404 0.438163 9.479417 -0.866696 -0.030755 5.395346 0.000000 0.000000 0.000000 1.306622 4.677904 -47.962677 57.802367 -55.695297 32.519073 21.632191 -6.807806 5.729990 0.000000 0.000000 0.000000 -7.125000 0.000000 0.000000 -3.765103 23.821046 -1.927742 0.000000 0.000000 0.000000 -4.095141 9.414618 30.356207 -29.826599 -40.744273 -11.296253 -17.643965 4.099460 5.312805 0.000000 0.000000 0.000000 7.125000 0.000000 0.000000 7.537371 35.469960 1.777488
-2.797150 16.453504 48.173068 -176.549952 2.892697 -158.842092 0.000000 0.000000 0.000000 -9.665336 -7.578338 -39.274249 15.009810 19.391286 75.265627 0.467962 -7.243307 -12.429165 0.057568 -1.436217 -3.952067 0.000000 0.000000 0.000000 25.222464 7.953928 -26.245774 -4.182385 -12.399092 37.158943 -2.779840 0.105075 -31.585588 -0.109386 2.130561 -5.866559 2.952364 -0.271428 12.696030 3.591978 0.568733 0.205706 2.019372 0.342882 -6.936945 -0.694031 -0.157261 -15.454919 -3.262893 0.414497 9.399463 -0.876571 -0.043980 5.359777 0.000000 0.000000 0.000000 1.226017 4.846940 -48.001990 58.137312 -55.791767 32.796144 21.687849 -6.950409 5.807516 0.000000 0.000000 0.000000 -7.125000 0.000000 0.000000 -3.723816 23.735465 -1.913729 0.000000 0.000000 0.000000 -4.214082 9.466310 30.567139 -29.933214 -40.835821 -11.366009 -17.667224 3.958355 5.160674 0.000000 0.000000 0.000000 7.125000 0.000000 0.000000 7.499856 35.313028 1.797157
-2.787175 16.438622 48.108829 -176.646110 2.798613 -158.849274 0.000000 0.000000 0.000000 -9.658991 -7.782944 -39.783491 15.159195 19.428034 75.715298 0.503672 -7.468542 -12.893559 0.092879 -1.906437 -5.248812 0.000000 0.000000 0.000000 25.204909 7.908282 -26.043003 -4.208599 -12.432808 37.280917 -2.830313 -0.044629 -31.920986 -0.116967 2.203538 -6.068452 2.910909 -0.278850 12.810901 3.610691 0.562588 0.180090 2.065018 0.341445 -7.029553 -0.723836 -0.182438 -15.391239 -3.304509 0.390796 9.319623 -0.886466 -0.057227 5.324107 0.000000 0.000000 0.000000 1.145220 5.016913 -48.041171 58.472431 -55.888245 33.073368 21.742991 -7.093211 5.884802 0.000000 0.000000 0.000000 -7.125000 0.000000 0.000000 -3.682919 23.650159 -1.899883 0.000000 0.000000 0.000000 -4.333462 9.518778 30.778329 -30.039866 -40.927391 -11.435794 -17.689528 3.816631 5.007020 0.000000 0.000000 0.000000 7.125000 0.000000 0.000000 7.462949 35.154466 1.817267
-2.777200 16.423451 48.043707 -176.719614 2.706833 -158.840905 0.000000 0.000000 0.000000 -9.629724 -7.977375 -40.349311 15.296446 19.460712 76.127762 0.528824 -7.665362 -13.222871 0.109568 -2.134254 -5.876925 0.000000 0.000000 0.000000 25.205726 7.850599 -25.863924 -4.236829 -12.468904 37.411837 -2.872358 -0.187959 -32.205047 -0.130096 2.319174 -6.388763 2.906660 -0.274598 12.873073 3.616599 0.572916 0.181890 2.072093 0.347170 -7.062951 -0.748650 -0.217290 -15.357893 -3.325025 0.350067 9.228495 -0.892061 -0.077309 5.289512 0.000000 0.000000 0.000000 1.104298 5.128004 -48.093255 58.797777 -55.980403 33.342855 21.767818 -7.277059 5.955138 0.000000 0.000000 0.000000 -7.125000 0.000000 0.000000 -3.664522 23.573646 -1.896905 0.000000 0.000000 0.000000 -4.395669 9.489460 30.950622 -30.141603 -41.014372 -11.502487 -17.682938 3.683661 4.950818 0.000000 0.000000 0.000000 7.125000 0.000000 0.000000 7.461559 35.095776 1.827777
-2.767225 16.407970 47.977633 -176.768691 2.617538 -158.815768 0.000000 0.000000 0.000000 -9.575740 -8.160835 -40.976137 15.420615 19.489001 76.500107 0.542589 -7.831545 -13.406530 0.106177 -2.100698 -5.784078 0.000000 0.000000 0.000000 25.226354 7.779937 -25.710389 -4.267233 -12.507566 37.552404 -2.905315 -0.324417 -32.433753 -0.149208 2.480808 -6.836758 2.942530 -0.257760 12.878419 3.608698 0.601005 0.213251 2.037580 0.360616 -7.032508 -0.768081 -0.262577 -15.357254 -3.322790 0.290975 9.125194 -0.893018 -0.104760 5.256075 0.000000 0.000000 0.000000 1.106373 5.175605 -48.159249 59.112587 -56.067903 33.604000 21.759958 -7.505166 6.017980 0.000000 0.000000 0.000000 -7.125000 0.000000 0.000000 -3.670387 23.506615 -1.905643 0.000000 0.000000 0.000000 -4.396227 9.371955 31.080975 -30.238041 -41.096407 -11.565848 -17.645193 3.560131 4.999696 0.000000 0.000000 0.000000 7.125000 0.000000 0.000000 7.498466 35.144773 1.827936
